<svg width="546" height="134" viewBox="0 0 546 134" fill="none" xmlns="http://www.w3.org/2000/svg">
<path d="M194.979 97.15V40.87H218.695C222.018 40.87 224.992 41.674 227.618 43.282C230.298 44.8364 232.415 46.9804 233.969 49.714C235.577 52.394 236.381 55.4224 236.381 58.7992C236.381 62.2832 235.577 65.4188 233.969 68.206C232.415 70.9396 230.298 73.1372 227.618 74.7988C224.992 76.4068 222.018 77.2108 218.695 77.2108H206.556V97.15H194.979ZM206.475 66.6784H217.489C219.472 66.6784 221.133 65.9548 222.473 64.5076C223.867 63.0068 224.563 61.1576 224.563 58.96C224.563 56.7624 223.867 54.9668 222.473 53.5732C221.133 52.126 219.472 51.4024 217.489 51.4024H206.475V66.6784Z" fill="#494D4B"/>
<path d="M264.488 97.954C260.147 97.954 256.288 97.016 252.912 95.14C249.535 93.2104 246.883 90.584 244.953 87.2608C243.024 83.9376 242.059 80.132 242.059 75.844C242.059 71.6096 243.024 67.8308 244.953 64.5076C246.883 61.1844 249.535 58.5848 252.912 56.7088C256.288 54.7792 260.147 53.8144 264.488 53.8144C268.723 53.8144 272.528 54.7792 275.904 56.7088C279.281 58.5848 281.934 61.1844 283.863 64.5076C285.793 67.8308 286.757 71.6096 286.757 75.844C286.757 80.132 285.793 83.9376 283.863 87.2608C281.934 90.584 279.281 93.2104 275.904 95.14C272.528 97.016 268.723 97.954 264.488 97.954ZM264.488 88.3864C266.632 88.3864 268.562 87.8504 270.277 86.7784C271.992 85.6528 273.305 84.152 274.216 82.276C275.181 80.4 275.663 78.256 275.663 75.844C275.663 73.432 275.181 71.288 274.216 69.412C273.305 67.536 271.992 66.062 270.277 64.99C268.562 63.918 266.632 63.382 264.488 63.382C262.291 63.382 260.335 63.918 258.62 64.99C256.905 66.062 255.565 67.536 254.6 69.412C253.635 71.288 253.153 73.432 253.153 75.844C253.153 78.256 253.635 80.4 254.6 82.276C255.565 84.152 256.905 85.6528 258.62 86.7784C260.335 87.8504 262.291 88.3864 264.488 88.3864Z" fill="#494D4B"/>
<path d="M312.232 97.954C308.481 97.954 305.131 97.016 302.183 95.14C299.235 93.2104 296.904 90.584 295.189 87.2608C293.528 83.9376 292.697 80.1588 292.697 75.9244C292.697 71.6364 293.528 67.8308 295.189 64.5076C296.904 61.1844 299.235 58.5848 302.183 56.7088C305.131 54.7792 308.481 53.8144 312.232 53.8144C314.805 53.8144 317.243 54.3236 319.548 55.342C321.906 56.3604 323.809 57.6736 325.256 59.2816V37.654H336.27V97.15H325.819L325.658 92.0848C324.264 93.7464 322.362 95.14 319.95 96.2656C317.538 97.3912 314.966 97.954 312.232 97.954ZM314.644 88.7884C317.913 88.7884 320.566 87.6092 322.603 85.2508C324.64 82.8388 325.658 79.73 325.658 75.9244C325.658 72.0652 324.64 68.9564 322.603 66.598C320.566 64.186 317.913 62.98 314.644 62.98C311.375 62.98 308.722 64.186 306.685 66.598C304.649 68.9564 303.63 72.0652 303.63 75.9244C303.63 79.73 304.649 82.8388 306.685 85.2508C308.722 87.6092 311.375 88.7884 314.644 88.7884Z" fill="#494D4B"/>
<path d="M365.813 97.954C361.793 97.954 358.175 96.9892 354.96 95.0596C351.798 93.13 349.279 90.5036 347.403 87.1804C345.581 83.8572 344.669 80.0784 344.669 75.844C344.669 71.6632 345.581 67.9112 347.403 64.588C349.279 61.2648 351.798 58.6384 354.96 56.7088C358.175 54.7792 361.793 53.8144 365.813 53.8144C369.618 53.8144 373.075 54.5112 376.183 55.9048C379.346 57.2984 381.811 59.2548 383.58 61.774L377.55 69.01C376.425 67.4556 374.87 66.1424 372.887 65.0704C370.904 63.9448 368.894 63.382 366.858 63.382C364.607 63.382 362.597 63.9448 360.828 65.0704C359.113 66.1424 357.747 67.6164 356.728 69.4924C355.764 71.3684 355.281 73.4856 355.281 75.844C355.281 78.2024 355.79 80.3196 356.809 82.1956C357.827 84.0716 359.221 85.5724 360.989 86.698C362.758 87.77 364.741 88.306 366.938 88.306C369.028 88.306 370.958 87.8504 372.727 86.9392C374.495 85.9744 376.103 84.6344 377.55 82.9192L383.58 90.1552C381.757 92.5136 379.238 94.4164 376.023 95.8636C372.807 97.2572 369.404 97.954 365.813 97.954Z" fill="#494D4B"/>
<path d="M406.895 97.954C403.357 97.954 400.168 96.9892 397.328 95.0596C394.487 93.13 392.21 90.5036 390.495 87.1804C388.833 83.8572 388.002 80.0784 388.002 75.844C388.002 71.5024 388.833 67.6968 390.495 64.4272C392.21 61.104 394.514 58.5044 397.408 56.6284C400.356 54.7524 403.679 53.8144 407.377 53.8144C410.378 53.8144 413.004 54.4308 415.255 55.6636C417.506 56.8428 419.302 58.3972 420.642 60.3268V54.6988H431.575V97.15H420.561V91.4416C419.061 93.3176 417.105 94.872 414.693 96.1048C412.335 97.3376 409.735 97.954 406.895 97.954ZM409.869 88.3864C413.138 88.3864 415.791 87.234 417.828 84.9292C419.865 82.6244 420.883 79.596 420.883 75.844C420.883 72.092 419.865 69.0636 417.828 66.7588C415.791 64.454 413.138 63.3016 409.869 63.3016C406.653 63.3016 404.027 64.454 401.991 66.7588C400.008 69.0636 399.016 72.092 399.016 75.844C399.016 79.596 400.008 82.6244 401.991 84.9292C404.027 87.234 406.653 88.3864 409.869 88.3864Z" fill="#494D4B"/>
<path d="M457.336 97.954C453.424 97.954 449.94 97.3108 446.885 96.0244C443.83 94.738 441.365 92.9156 439.489 90.5572L446.403 84.688C448.01 86.4568 449.833 87.7432 451.869 88.5472C453.906 89.2976 455.969 89.6728 458.06 89.6728C459.721 89.6728 461.061 89.2976 462.079 88.5472C463.097 87.7968 463.607 86.7516 463.607 85.4116C463.607 84.2324 463.124 83.2944 462.16 82.5976C461.195 81.9544 458.89 81.1504 455.246 80.1856C449.833 78.792 446.001 76.8892 443.75 74.4772C441.767 72.3332 440.775 69.68 440.775 66.5176C440.775 63.9984 441.525 61.8008 443.026 59.9248C444.527 57.9952 446.51 56.4944 448.975 55.4224C451.441 54.3504 454.12 53.8144 457.014 53.8144C460.337 53.8144 463.473 54.404 466.42 55.5832C469.368 56.7624 471.833 58.3704 473.817 60.4072L467.867 66.9196C466.367 65.526 464.625 64.3736 462.642 63.4624C460.712 62.4976 458.917 62.0152 457.256 62.0152C453.397 62.0152 451.467 63.3552 451.467 66.0352C451.521 67.3216 452.11 68.34 453.236 69.0904C454.308 69.8408 456.746 70.7252 460.552 71.7436C465.643 73.0836 469.234 74.8524 471.324 77.05C473.147 78.926 474.058 81.4184 474.058 84.5272C474.058 87.1 473.307 89.4048 471.807 91.4416C470.36 93.4784 468.377 95.0864 465.858 96.2656C463.339 97.3912 460.498 97.954 457.336 97.954Z" fill="#494D4B"/>
<path d="M486.541 97.15V64.588H478.502V54.6988H486.541V43.8448H497.475V54.6988H506.398V64.588H497.475V97.15H486.541Z" fill="#494D4B"/>
<path d="M513.762 97.15V54.6988H524.374L524.535 61.6936C525.928 59.3888 527.751 57.5128 530.002 56.0656C532.306 54.5648 534.718 53.8144 537.237 53.8144C538.202 53.8144 539.086 53.8948 539.89 54.0556C540.747 54.1628 541.471 54.3236 542.06 54.538L539.086 66.598C538.496 66.2764 537.746 66.0084 536.835 65.794C535.924 65.5796 535.013 65.4724 534.102 65.4724C531.475 65.4724 529.251 66.3836 527.429 68.206C525.66 69.9748 524.776 72.226 524.776 74.9596V97.15H513.762Z" fill="#494D4B"/>
<path d="M127.707 66.6235C127.789 77.2316 125.077 87.6744 119.843 96.9017C119.165 98.1004 118.447 99.2729 117.689 100.419C117.315 101.002 116.828 101.504 116.257 101.897C115.687 102.291 115.044 102.567 114.366 102.709C113.689 102.852 112.989 102.859 112.309 102.729C111.628 102.6 110.98 102.336 110.402 101.954C109.824 101.573 109.328 101.08 108.942 100.504C108.556 99.9292 108.288 99.283 108.153 98.6034C108.019 97.9238 108.021 97.2243 108.158 96.5453C108.296 95.8664 108.568 95.2216 108.957 94.6483C113.952 87.0654 116.799 78.2707 117.196 69.1989C117.592 60.1271 115.524 51.1173 111.21 43.1272C106.896 35.1371 100.498 28.4653 92.696 23.8208C84.8939 19.1764 75.9792 16.733 66.8996 16.7504C49.4472 16.7844 33.9732 25.9472 24.9787 39.6377C19.6019 47.8054 16.7407 57.3719 16.75 67.1509C16.7593 76.9298 19.6387 86.4909 25.0311 94.6483C25.7956 95.8072 26.0685 97.2223 25.7897 98.5823C25.511 99.9424 24.7034 101.136 23.5447 101.901C22.3859 102.665 20.971 102.938 19.611 102.659C18.2511 102.38 17.0576 101.573 16.2931 100.414C10.3139 91.3394 6.8795 80.8263 6.34825 69.9716C5.817 59.117 8.20838 48.3187 13.2728 38.7035C18.3373 29.0883 25.8893 21.0086 35.1406 15.3076C44.392 9.60654 55.0038 6.49308 65.8686 6.29209C66.2506 6.28424 66.6301 6.28162 67.0096 6.28162C83.0551 6.24857 98.4583 12.5839 109.838 23.897C121.218 35.2101 127.644 50.5765 127.707 66.6235V66.6235Z" fill="#494D4B"/>
<path d="M30.3678 76.3613L39.8537 123.554C40.4231 126.387 43.1812 128.222 46.014 127.653C48.8468 127.083 50.6816 124.325 50.1121 121.492L40.6262 74.2989C40.0568 71.4659 37.2987 69.6309 34.4659 70.2004C31.6331 70.7699 29.7983 73.5282 30.3678 76.3613Z" fill="#04D361"/>
<path d="M39.673 122.49L37.268 122.974C33.6944 123.693 29.981 123.02 26.8872 121.092C23.7934 119.164 21.553 116.127 20.6242 112.602C20.5536 112.33 20.4881 112.058 20.4332 111.78L16.9867 94.6558C16.2398 90.9386 16.9991 87.0769 19.0979 83.9194C21.1967 80.7619 24.4631 78.5669 28.1793 77.8168L30.5843 77.3326L34.8028 98.2911L39.673 122.49Z" fill="#494D4B"/>
<path d="M39.673 122.49L37.2681 122.974C33.6945 123.694 29.981 123.021 26.8872 121.093C23.7934 119.165 21.553 116.127 20.6243 112.602C25.707 108.199 30.4469 103.415 34.8029 98.2913L39.673 122.49Z" fill="#494D4B"/>
<path d="M121.084 90.7432L119.843 96.9015C119.165 98.1001 118.447 99.2726 117.689 100.419C117.315 101.002 116.828 101.504 116.257 101.897C115.687 102.29 115.044 102.566 114.366 102.709C113.689 102.852 112.989 102.859 112.309 102.729C111.628 102.599 110.98 102.336 110.402 101.954C109.824 101.572 109.328 101.079 108.942 100.504C108.556 99.9289 108.288 99.2828 108.153 98.6031C108.019 97.9235 108.021 97.224 108.158 96.5451C108.296 95.8661 108.568 95.2214 108.957 94.6481C112.504 89.2784 114.981 83.2734 116.25 76.9637C118.22 78.614 119.708 80.7647 120.559 83.1897C121.41 85.6146 121.591 88.224 121.084 90.7432Z" fill="#494D4B"/>
<path d="M114.879 29.5795L107.371 37.0883C102.692 30.7614 96.5915 25.6239 89.561 22.0908C82.5305 18.5578 74.7676 16.7282 66.8995 16.7501C49.4471 16.7841 33.973 25.9469 24.9786 39.6374L17.3633 32.0214C22.8539 24.2184 30.1083 17.8215 38.5367 13.3507C46.965 8.87985 56.3294 6.46135 65.8684 6.29181C66.2505 6.28396 66.6299 6.28134 67.0094 6.28134C76.236 6.26066 85.3453 8.349 93.6416 12.3869C101.938 16.4247 109.202 22.3053 114.879 29.5795V29.5795Z" fill="#8257E5"/>
<path d="M93.2765 74.2479L83.7906 121.441C83.2212 124.274 85.056 127.032 87.8887 127.602C90.7215 128.171 93.4796 126.336 94.049 123.503L103.535 76.3102C104.104 73.4772 102.27 70.7189 99.4368 70.1494C96.604 69.5799 93.846 71.4148 93.2765 74.2479Z" fill="#04D361"/>
<path d="M117.001 94.6558L113.555 111.78C112.806 115.497 110.612 118.765 107.455 120.864C104.298 122.963 100.436 123.722 96.7197 122.974L94.3147 122.49L96.806 110.118L103.403 77.3326L105.808 77.8168C109.524 78.5678 112.791 80.7617 114.892 83.9175C115.181 84.3525 115.446 84.8034 115.685 85.2679C117.178 88.1565 117.642 91.4679 117.001 94.6558V94.6558Z" fill="#494D4B"/>
<path d="M117.001 94.6559L113.555 111.78C112.806 115.497 110.612 118.765 107.455 120.864C104.298 122.963 100.436 123.722 96.7197 122.974L94.3147 122.49L96.806 110.118C103.975 102.539 110.305 94.2072 115.685 85.2681C117.178 88.1567 117.642 91.468 117.001 94.6559V94.6559Z" fill="#494D4B"/>
</svg>
