<svg width="936" height="145" viewBox="0 0 936 145" fill="none" xmlns="http://www.w3.org/2000/svg">
<g clip-path="url(#clip0)">
<path d="M91.4651 44.3263H63.4603V120.708H47.9776V44.3263H20.2196V31.8806H91.4651V44.3263ZM132.732 68.2413C130.758 67.9159 128.723 67.7533 126.625 67.7533C119.758 67.7533 115.132 70.3563 112.746 75.5623V120.708H97.7569V54.6976H112.067L112.438 62.0795C116.056 56.3448 121.074 53.4774 127.489 53.4774C129.627 53.4774 131.396 53.7622 132.793 54.3315L132.732 68.2413ZM158.146 120.708H143.157V54.6976H158.146V120.708ZM142.231 37.5544C142.231 35.2767 142.951 33.3855 144.39 31.8806C145.871 30.3758 147.968 29.6233 150.682 29.6233C153.396 29.6233 155.493 30.3758 156.974 31.8806C158.454 33.3855 159.194 35.2767 159.194 37.5544C159.194 39.7913 158.454 41.6622 156.974 43.1671C155.493 44.6313 153.396 45.3634 150.682 45.3634C147.968 45.3634 145.871 44.6313 144.39 43.1671C142.951 41.6622 142.231 39.7913 142.231 37.5544ZM190.469 120.708H175.48V27H190.469V120.708ZM221.619 61.8966C226.512 56.2838 232.702 53.4774 240.186 53.4774C254.415 53.4774 261.632 61.5101 261.837 77.5756V120.708H246.848V78.1246C246.848 73.5694 245.841 70.3563 243.826 68.4854C241.852 66.5738 238.932 65.618 235.066 65.618C229.063 65.618 224.58 68.2617 221.619 73.549V120.708H206.629V27H221.619V61.8966ZM316.921 120.708C316.263 119.447 315.688 117.394 315.194 114.546C310.424 119.467 304.585 121.928 297.676 121.928C290.973 121.928 285.504 120.037 281.268 116.254C277.032 112.472 274.914 107.795 274.914 102.223C274.914 95.1864 277.546 89.7975 282.81 86.0556C288.115 82.2731 295.681 80.3819 305.51 80.3819H314.701V76.0503C314.701 72.6339 313.734 69.9089 311.802 67.8753C309.869 65.8011 306.929 64.7638 302.981 64.7638C299.568 64.7638 296.771 65.618 294.592 67.3262C292.413 68.9937 291.323 71.1291 291.323 73.7321H276.334C276.334 70.1122 277.546 66.7365 279.973 63.6047C282.399 60.4323 285.689 57.9514 289.842 56.1618C294.036 54.3722 298.704 53.4774 303.845 53.4774C311.658 53.4774 317.888 55.4297 322.535 59.3342C327.181 63.1981 329.567 68.6481 329.69 75.6843V105.456C329.69 111.394 330.533 116.133 332.22 119.671V120.708H316.921ZM300.452 110.032C303.413 110.032 306.189 109.32 308.779 107.896C311.411 106.473 313.385 104.561 314.701 102.162V89.7161H306.62C301.069 89.7161 296.895 90.6719 294.099 92.5834C291.302 94.4951 289.904 97.1997 289.904 100.698C289.904 103.545 290.849 105.822 292.742 107.53C294.674 109.198 297.245 110.032 300.452 110.032Z" fill="#A8A8B3"/>
<path d="M386.888 89.0156H375.685V114H361.622V45.75H386.981C395.044 45.75 401.263 47.5469 405.638 51.1406C410.013 54.7344 412.2 59.8125 412.2 66.375C412.2 71.0312 411.185 74.9219 409.153 78.0469C407.153 81.1406 404.106 83.6094 400.013 85.4531L414.778 113.344V114H399.685L386.888 89.0156ZM375.685 77.625H387.028C390.56 77.625 393.294 76.7344 395.231 74.9531C397.169 73.1406 398.138 70.6562 398.138 67.5C398.138 64.2812 397.216 61.75 395.372 59.9062C393.56 58.0625 390.763 57.1406 386.981 57.1406H375.685V77.625ZM445.388 114.938C437.95 114.938 431.888 112.656 427.2 108.094C422.544 103.531 420.216 97.4531 420.216 89.8594V88.5469C420.216 83.4531 421.2 78.9062 423.169 74.9062C425.138 70.875 427.919 67.7812 431.513 65.625C435.138 63.4375 439.263 62.3438 443.888 62.3438C450.825 62.3438 456.278 64.5312 460.247 68.9062C464.247 73.2812 466.247 79.4844 466.247 87.5156V93.0469H433.95C434.388 96.3594 435.7 99.0156 437.888 101.016C440.106 103.016 442.903 104.016 446.278 104.016C451.497 104.016 455.575 102.125 458.513 98.3438L465.169 105.797C463.138 108.672 460.388 110.922 456.919 112.547C453.45 114.141 449.606 114.938 445.388 114.938ZM443.841 73.3125C441.153 73.3125 438.966 74.2188 437.278 76.0312C435.622 77.8438 434.56 80.4375 434.091 83.8125H452.935V82.7344C452.872 79.7344 452.06 77.4219 450.497 75.7969C448.935 74.1406 446.716 73.3125 443.841 73.3125ZM503.372 114C502.747 112.781 502.294 111.266 502.013 109.453C498.731 113.109 494.466 114.938 489.216 114.938C484.247 114.938 480.122 113.5 476.841 110.625C473.591 107.75 471.966 104.125 471.966 99.75C471.966 94.375 473.95 90.25 477.919 87.375C481.919 84.5 487.685 83.0469 495.216 83.0156H501.45V80.1094C501.45 77.7656 500.841 75.8906 499.622 74.4844C498.435 73.0781 496.544 72.375 493.95 72.375C491.669 72.375 489.872 72.9219 488.56 74.0156C487.278 75.1094 486.638 76.6094 486.638 78.5156H473.091C473.091 75.5781 473.997 72.8594 475.81 70.3594C477.622 67.8594 480.185 65.9062 483.497 64.5C486.81 63.0625 490.528 62.3438 494.653 62.3438C500.903 62.3438 505.856 63.9219 509.513 67.0781C513.2 70.2031 515.044 74.6094 515.044 80.2969V102.281C515.075 107.094 515.747 110.734 517.06 113.203V114H503.372ZM492.169 104.578C494.169 104.578 496.013 104.141 497.7 103.266C499.388 102.359 500.638 101.156 501.45 99.6562V90.9375H496.388C489.606 90.9375 485.997 93.2812 485.56 97.9688L485.513 98.7656C485.513 100.453 486.106 101.844 487.294 102.938C488.481 104.031 490.106 104.578 492.169 104.578ZM546.544 104.016C549.044 104.016 551.075 103.328 552.638 101.953C554.2 100.578 555.013 98.75 555.075 96.4688H567.778C567.747 99.9062 566.81 103.062 564.966 105.938C563.122 108.781 560.591 111 557.372 112.594C554.185 114.156 550.653 114.938 546.778 114.938C539.528 114.938 533.81 112.641 529.622 108.047C525.435 103.422 523.341 97.0469 523.341 88.9219V88.0312C523.341 80.2188 525.419 73.9844 529.575 69.3281C533.731 64.6719 539.435 62.3438 546.685 62.3438C553.028 62.3438 558.106 64.1562 561.919 67.7812C565.763 71.375 567.716 76.1719 567.778 82.1719H555.075C555.013 79.5469 554.2 77.4219 552.638 75.7969C551.075 74.1406 549.013 73.3125 546.45 73.3125C543.294 73.3125 540.903 74.4688 539.278 76.7812C537.685 79.0625 536.888 82.7812 536.888 87.9375V89.3438C536.888 94.5625 537.685 98.3125 539.278 100.594C540.872 102.875 543.294 104.016 546.544 104.016ZM591.731 50.8125V63.2812H600.403V73.2188H591.731V98.5312C591.731 100.406 592.091 101.75 592.81 102.562C593.528 103.375 594.903 103.781 596.935 103.781C598.435 103.781 599.763 103.672 600.919 103.453V113.719C598.263 114.531 595.528 114.938 592.716 114.938C583.216 114.938 578.372 110.141 578.185 100.547V73.2188H570.778V63.2812H578.185V50.8125H591.731ZM688.247 114H674.185L646.81 69.0938V114H632.747V45.75H646.81L674.231 90.75V45.75H688.247V114ZM729.028 114C728.403 112.781 727.95 111.266 727.669 109.453C724.388 113.109 720.122 114.938 714.872 114.938C709.903 114.938 705.778 113.5 702.497 110.625C699.247 107.75 697.622 104.125 697.622 99.75C697.622 94.375 699.606 90.25 703.575 87.375C707.575 84.5 713.341 83.0469 720.872 83.0156H727.106V80.1094C727.106 77.7656 726.497 75.8906 725.278 74.4844C724.091 73.0781 722.2 72.375 719.606 72.375C717.325 72.375 715.528 72.9219 714.216 74.0156C712.935 75.1094 712.294 76.6094 712.294 78.5156H698.747C698.747 75.5781 699.653 72.8594 701.466 70.3594C703.278 67.8594 705.841 65.9062 709.153 64.5C712.466 63.0625 716.185 62.3438 720.31 62.3438C726.56 62.3438 731.513 63.9219 735.169 67.0781C738.856 70.2031 740.7 74.6094 740.7 80.2969V102.281C740.731 107.094 741.403 110.734 742.716 113.203V114H729.028ZM717.825 104.578C719.825 104.578 721.669 104.141 723.356 103.266C725.044 102.359 726.294 101.156 727.106 99.6562V90.9375H722.044C715.263 90.9375 711.653 93.2812 711.216 97.9688L711.169 98.7656C711.169 100.453 711.763 101.844 712.95 102.938C714.138 104.031 715.763 104.578 717.825 104.578ZM767.325 50.8125V63.2812H775.997V73.2188H767.325V98.5312C767.325 100.406 767.685 101.75 768.403 102.562C769.122 103.375 770.497 103.781 772.528 103.781C774.028 103.781 775.356 103.672 776.513 103.453V113.719C773.856 114.531 771.122 114.938 768.31 114.938C758.81 114.938 753.966 110.141 753.778 100.547V73.2188H746.372V63.2812H753.778V50.8125H767.325ZM797.841 114H784.247V63.2812H797.841V114ZM783.45 50.1562C783.45 48.125 784.122 46.4531 785.466 45.1406C786.841 43.8281 788.7 43.1719 791.044 43.1719C793.356 43.1719 795.2 43.8281 796.575 45.1406C797.95 46.4531 798.638 48.125 798.638 50.1562C798.638 52.2188 797.935 53.9062 796.528 55.2188C795.153 56.5312 793.325 57.1875 791.044 57.1875C788.763 57.1875 786.919 56.5312 785.513 55.2188C784.138 53.9062 783.45 52.2188 783.45 50.1562ZM828.028 97.4531L837.45 63.2812H851.606L834.497 114H821.56L804.45 63.2812H818.606L828.028 97.4531ZM880.294 114.938C872.856 114.938 866.794 112.656 862.106 108.094C857.45 103.531 855.122 97.4531 855.122 89.8594V88.5469C855.122 83.4531 856.106 78.9062 858.075 74.9062C860.044 70.875 862.825 67.7812 866.419 65.625C870.044 63.4375 874.169 62.3438 878.794 62.3438C885.731 62.3438 891.185 64.5312 895.153 68.9062C899.153 73.2812 901.153 79.4844 901.153 87.5156V93.0469H868.856C869.294 96.3594 870.606 99.0156 872.794 101.016C875.013 103.016 877.81 104.016 881.185 104.016C886.403 104.016 890.481 102.125 893.419 98.3438L900.075 105.797C898.044 108.672 895.294 110.922 891.825 112.547C888.356 114.141 884.513 114.938 880.294 114.938ZM878.747 73.3125C876.06 73.3125 873.872 74.2188 872.185 76.0312C870.528 77.8438 869.466 80.4375 868.997 83.8125H887.841V82.7344C887.778 79.7344 886.966 77.4219 885.403 75.7969C883.841 74.1406 881.622 73.3125 878.747 73.3125Z" fill="#4763FF"/>
</g>
<defs>
<clipPath id="clip0">
<rect width="936" height="145" fill="white"/>
</clipPath>
</defs>
</svg>
